<?xml version="1.0" standalone="no"?>
<!DOCTYPE svg PUBLIC "-//W3C//DTD SVG 20010904//EN"
 "http://www.w3.org/TR/2001/REC-SVG-20010904/DTD/svg10.dtd">
<svg version="1.0" xmlns="http://www.w3.org/2000/svg"
 width="100%" height="100%" viewBox="0 0 1200.000000 720.000000"
 preserveAspectRatio="xMidYMid slice">

<g transform="translate(0.000000,720.000000) scale(0.100000,-0.100000)"
fill="#ffffff" stroke="none">
<path d="M1746 5079 c-13 -19 -11 -27 22 -92 36 -71 37 -74 37 -187 0 -112 -1
-117 -37 -194 -21 -43 -38 -80 -38 -82 0 -2 11 -11 24 -19 32 -22 56 -9 89 48
84 142 90 313 17 458 -43 86 -84 110 -114 68z"/>
<path d="M2076 5079 c-13 -19 -11 -28 22 -97 36 -74 37 -81 37 -187 0 -104 -2
-114 -32 -176 -38 -77 -41 -104 -12 -119 31 -17 60 8 97 83 63 127 65 288 6
412 -47 101 -86 129 -118 84z"/>
<path d="M2405 5080 c-17 -19 -17 -22 14 -83 60 -119 63 -276 7 -392 -31 -63
-33 -91 -5 -105 41 -22 81 23 119 136 42 120 32 261 -25 375 -46 92 -74 109
-110 69z"/>
<path d="M2030 4444 c-523 -21 -927 -128 -1026 -273 l-24 -36 0 -625 0 -625
-35 -19 c-54 -30 -123 -103 -136 -146 -34 -113 60 -224 274 -328 175 -85 362
-137 657 -183 127 -20 183 -23 445 -23 264 -1 317 2 445 22 393 62 664 154
832 281 167 127 158 270 -22 373 l-40 23 0 619 0 619 -24 42 c-72 122 -379
226 -776 264 -120 11 -443 20 -570 15z m460 -109 c293 -24 454 -52 608 -107
140 -49 210 -104 197 -155 l-7 -28 -20 25 c-23 29 -67 60 -85 60 -9 0 -13 -18
-13 -55 0 -43 -4 -58 -22 -75 -39 -36 -120 -68 -208 -84 -47 -8 -123 -22 -170
-30 -167 -30 -484 -55 -700 -56 -122 0 -196 5 -285 21 -66 11 -145 24 -175 29
-112 17 -218 45 -305 79 l-90 36 -5 65 c-6 81 -23 87 -79 31 -42 -42 -51 -42
-51 -4 0 99 348 211 751 243 296 23 434 24 659 5z m-1369 -394 c91 -71 319
-140 581 -176 261 -36 742 -36 983 0 240 36 470 104 554 165 22 17 45 30 51
30 20 0 11 -70 -13 -94 -83 -83 -351 -165 -670 -204 -43 -6 -84 -16 -92 -22
-20 -17 -19 -44 4 -64 17 -16 27 -16 146 -1 231 28 459 86 570 144 28 14 53
27 58 29 11 5 9 -866 -3 -887 -13 -26 -96 -77 -171 -107 -158 -62 -475 -120
-736 -135 -505 -29 -1102 72 -1270 215 l-33 28 0 448 0 448 63 -34 c116 -63
341 -122 570 -149 137 -15 157 -11 157 36 0 37 -15 43 -140 59 -230 28 -436
81 -552 142 -67 35 -95 64 -98 98 -5 56 2 62 41 31z m-54 -1187 c93 -71 208
-116 414 -162 257 -58 342 -66 704 -67 348 0 405 5 635 52 259 53 411 107 506
179 l45 35 32 -20 c115 -71 105 -133 -39 -229 -104 -71 -231 -120 -451 -177
-372 -95 -896 -109 -1298 -34 -273 51 -471 122 -617 220 -122 83 -131 146 -30
210 25 16 47 29 49 29 1 0 24 -16 50 -36z"/>
<path d="M1232 3618 c-9 -9 -12 -111 -12 -399 0 -417 0 -415 52 -407 l23 3 3
399 c2 313 -1 401 -10 408 -19 11 -42 10 -56 -4z"/>
<path d="M3076 3614 c-14 -13 -16 -64 -16 -400 l0 -384 26 -12 c18 -9 30 -9
42 -1 15 9 17 48 20 398 1 278 -1 392 -9 401 -15 19 -44 18 -63 -2z"/>
<path d="M1502 3558 c-9 -9 -12 -107 -12 -379 0 -400 -1 -394 57 -387 l28 3 3
379 c2 297 -1 381 -10 388 -19 12 -52 10 -66 -4z"/>
<path d="M2805 3558 c-3 -7 -4 -182 -3 -388 l3 -375 35 0 35 0 0 385 0 385
-33 3 c-20 2 -34 -2 -37 -10z"/>
<path d="M2033 3515 c-149 -40 -248 -137 -294 -286 -34 -108 -19 -225 43 -341
83 -156 270 -237 483 -210 233 30 385 205 385 441 0 198 -116 344 -315 397
-65 18 -235 17 -302 -1z m302 -106 c77 -29 160 -102 195 -172 36 -71 41 -162
13 -243 -24 -71 -119 -163 -198 -194 -89 -33 -187 -38 -274 -11 -96 29 -131
52 -184 119 -52 66 -67 111 -67 199 0 134 70 241 188 288 120 48 224 53 327
14z"/>
<path d="M4045 4148 c-3 -7 -4 -314 -3 -683 l3 -670 83 -3 82 -3 0 186 0 185
395 0 395 0 0 -185 0 -185 85 0 85 0 0 685 0 686 -82 -3 -83 -3 -3 -412 -2
-413 -395 0 -395 0 0 415 0 415 -80 0 c-55 0 -82 -4 -85 -12z"/>
<path d="M7067 4153 c-4 -3 -7 -312 -7 -685 l0 -679 313 3 312 3 66 32 c86 43
159 115 201 200 31 64 33 73 33 178 0 104 -2 114 -32 176 -33 66 -84 128 -137
166 l-29 20 20 29 c37 52 54 95 64 156 22 139 -40 275 -164 354 -70 46 -131
54 -392 54 -133 0 -245 -3 -248 -7z m560 -195 c76 -50 103 -150 63 -233 -42
-87 -94 -105 -301 -105 l-159 0 0 186 0 186 178 -4 c174 -3 179 -4 219 -30z
m48 -527 c162 -73 198 -297 66 -413 -64 -57 -88 -62 -308 -66 l-203 -4 0 251
0 251 203 0 c174 0 208 -3 242 -19z"/>
<path d="M6198 3738 l-3 -173 -27 -3 -28 -3 0 -85 0 -84 29 0 29 0 4 -177 c3
-171 4 -180 31 -234 31 -63 93 -126 159 -160 33 -17 65 -24 136 -27 l92 -4 0
86 0 86 -69 0 c-77 0 -119 21 -158 79 -22 32 -23 44 -23 192 l0 159 90 0 90 0
0 85 0 85 -90 0 -90 0 0 175 0 175 -85 0 -85 0 -2 -172z"/>
<path d="M5554 3545 c-136 -43 -244 -172 -264 -313 -23 -169 63 -329 217 -408
53 -27 67 -29 163 -29 95 0 110 3 163 28 273 134 302 506 52 672 -30 20 -76
42 -102 50 -58 18 -173 18 -229 0z m204 -171 c170 -71 176 -310 9 -395 -58
-30 -158 -24 -215 14 -76 50 -119 160 -93 240 19 56 65 112 112 135 53 26 133
29 187 6z"/>
<path d="M8353 3541 c-104 -36 -208 -141 -244 -246 -17 -52 -17 -188 0 -240
37 -110 151 -220 259 -251 80 -24 200 -16 272 18 58 27 160 111 160 132 0 6
-25 36 -55 66 l-54 53 -46 -42 c-25 -23 -63 -49 -83 -58 -50 -21 -133 -18
-180 6 -39 20 -102 83 -102 101 0 6 113 10 296 10 l296 0 -7 88 c-4 48 -16
110 -26 138 -39 103 -139 197 -244 229 -66 20 -177 18 -242 -4z m247 -186 c23
-17 51 -45 62 -62 l20 -33 -201 0 c-111 0 -201 3 -201 8 0 19 63 82 102 101
64 33 162 26 218 -14z"/>
<path d="M9219 3546 c-112 -43 -191 -114 -236 -211 -56 -122 -40 -287 38 -389
79 -103 184 -155 314 -155 78 -1 94 4 213 56 8 3 12 -5 12 -26 l0 -32 83 3 82
3 0 380 0 380 -82 3 -83 3 0 -31 c0 -16 -2 -30 -4 -30 -2 0 -30 12 -62 27 -48
22 -76 28 -149 30 -59 2 -102 -2 -126 -11z m199 -172 c172 -71 177 -309 8
-396 -57 -29 -156 -22 -209 14 -114 77 -135 227 -46 323 22 24 54 50 72 59 41
20 127 20 175 0z"/>
<path d="M9840 3175 l0 -385 85 0 85 0 0 244 c0 236 1 244 23 276 35 52 70 73
130 78 70 6 115 -10 158 -54 l34 -35 3 -255 3 -254 84 0 85 0 0 250 c0 226 -2
254 -20 304 -28 72 -85 135 -162 176 -83 45 -192 53 -280 22 -57 -20 -58 -20
-58 -1 0 17 -8 19 -85 19 l-85 0 0 -385z"/>
<path d="M10830 3544 c-138 -60 -162 -235 -46 -331 19 -15 69 -46 112 -68 119
-62 149 -111 99 -160 -35 -36 -120 -36 -159 0 -26 24 -27 29 -21 84 7 59 7 59
-22 64 -87 17 -126 18 -134 5 -16 -25 -10 -161 10 -203 25 -55 88 -109 151
-130 68 -23 178 -17 236 13 98 50 150 158 125 257 -24 96 -79 153 -212 220
-36 18 -71 40 -78 49 -18 22 -6 46 23 46 22 0 41 -18 83 -79 2 -2 34 17 73 43
l71 47 -30 42 c-16 23 -40 52 -53 64 -55 51 -157 68 -228 37z"/>
</g>
</svg>
