<?xml version="1.0" standalone="no"?>
<!DOCTYPE svg PUBLIC "-//W3C//DTD SVG 20010904//EN"
 "http://www.w3.org/TR/2001/REC-SVG-20010904/DTD/svg10.dtd">
<svg version="1.0" xmlns="http://www.w3.org/2000/svg"
 width="100%" height="100" viewBox="0 0 1200.000000 720.000000"
 preserveAspectRatio="xMidYMid slice">

<g transform="translate(0.000000,720.000000) scale(0.100000,-0.100000)"
fill="#FFFFFF" stroke="none">
<path d="M1746 5079 c-13 -19 -11 -27 22 -92 36 -71 37 -74 37 -187 0 -112 -1
-117 -37 -194 -21 -43 -38 -80 -38 -82 0 -2 11 -11 24 -19 32 -22 56 -9 89 48
84 142 90 313 17 458 -43 86 -84 110 -114 68z"/>
<path d="M2076 5079 c-13 -19 -11 -28 22 -97 36 -74 37 -81 37 -187 0 -104 -2
-114 -32 -176 -38 -77 -41 -104 -12 -119 31 -17 60 8 97 83 63 127 65 288 6
412 -47 101 -86 129 -118 84z"/>
<path d="M2405 5080 c-17 -19 -17 -22 14 -83 60 -119 63 -276 7 -392 -31 -63
-33 -91 -5 -105 41 -22 81 23 119 136 42 120 32 261 -25 375 -46 92 -74 109
-110 69z"/>
<path d="M2030 4444 c-523 -21 -927 -128 -1026 -273 l-24 -36 0 -625 0 -625
-35 -19 c-54 -30 -123 -103 -136 -146 -34 -113 60 -224 274 -328 175 -85 362
-137 657 -183 127 -20 183 -23 445 -23 264 -1 317 2 445 22 393 62 664 154
832 281 167 127 158 270 -22 373 l-40 23 0 619 0 619 -24 42 c-72 122 -379
226 -776 264 -120 11 -443 20 -570 15z m460 -109 c293 -24 454 -52 608 -107
140 -49 210 -104 197 -155 l-7 -28 -20 25 c-23 29 -67 60 -85 60 -9 0 -13 -18
-13 -55 0 -43 -4 -58 -22 -75 -39 -36 -120 -68 -208 -84 -47 -8 -123 -22 -170
-30 -167 -30 -484 -55 -700 -56 -122 0 -196 5 -285 21 -66 11 -145 24 -175 29
-112 17 -218 45 -305 79 l-90 36 -5 65 c-6 81 -23 87 -79 31 -42 -42 -51 -42
-51 -4 0 99 348 211 751 243 296 23 434 24 659 5z m-1369 -394 c91 -71 319
-140 581 -176 261 -36 742 -36 983 0 240 36 470 104 554 165 22 17 45 30 51
30 20 0 11 -70 -13 -94 -83 -83 -351 -165 -670 -204 -43 -6 -84 -16 -92 -22
-20 -17 -19 -44 4 -64 17 -16 27 -16 146 -1 231 28 459 86 570 144 28 14 53
27 58 29 11 5 9 -866 -3 -887 -13 -26 -96 -77 -171 -107 -158 -62 -475 -120
-736 -135 -505 -29 -1102 72 -1270 215 l-33 28 0 448 0 448 63 -34 c116 -63
341 -122 570 -149 137 -15 157 -11 157 36 0 37 -15 43 -140 59 -230 28 -436
81 -552 142 -67 35 -95 64 -98 98 -5 56 2 62 41 31z m-54 -1187 c93 -71 208
-116 414 -162 257 -58 342 -66 704 -67 348 0 405 5 635 52 259 53 411 107 506
179 l45 35 32 -20 c115 -71 105 -133 -39 -229 -104 -71 -231 -120 -451 -177
-372 -95 -896 -109 -1298 -34 -273 51 -471 122 -617 220 -122 83 -131 146 -30
210 25 16 47 29 49 29 1 0 24 -16 50 -36z"/>
<path d="M1232 3618 c-9 -9 -12 -111 -12 -399 0 -417 0 -415 52 -407 l23 3 3
399 c2 313 -1 401 -10 408 -19 11 -42 10 -56 -4z"/>
<path d="M3076 3614 c-14 -13 -16 -64 -16 -400 l0 -384 26 -12 c18 -9 30 -9
42 -1 15 9 17 48 20 398 1 278 -1 392 -9 401 -15 19 -44 18 -63 -2z"/>
<path d="M1502 3558 c-9 -9 -12 -107 -12 -379 0 -400 -1 -394 57 -387 l28 3 3
379 c2 297 -1 381 -10 388 -19 12 -52 10 -66 -4z"/>
<path d="M2805 3558 c-3 -7 -4 -182 -3 -388 l3 -375 35 0 35 0 0 385 0 385
-33 3 c-20 2 -34 -2 -37 -10z"/>
<path d="M2033 3515 c-149 -40 -248 -137 -294 -286 -34 -108 -19 -225 43 -341
83 -156 270 -237 483 -210 233 30 385 205 385 441 0 198 -116 344 -315 397
-65 18 -235 17 -302 -1z m302 -106 c77 -29 160 -102 195 -172 36 -71 41 -162
13 -243 -24 -71 -119 -163 -198 -194 -89 -33 -187 -38 -274 -11 -96 29 -131
52 -184 119 -52 66 -67 111 -67 199 0 134 70 241 188 288 120 48 224 53 327
14z"/>
<path d="M3770 3485 l0 -595 100 0 100 0 0 255 0 255 280 0 280 0 0 -255 0
-255 100 0 100 0 0 595 0 595 -100 0 -100 0 0 -250 0 -250 -280 0 -280 0 0
250 0 250 -100 0 -100 0 0 -595z"/>
<path d="M7120 3485 l0 -595 238 0 c259 0 313 8 405 57 63 35 131 111 151 170
20 59 21 168 1 224 -9 24 -33 61 -53 83 -37 38 -122 86 -154 86 -35 0 -27 19
18 42 95 47 154 147 154 257 0 71 -25 125 -78 173 -92 83 -161 98 -459 98
l-223 0 0 -595z m455 417 c72 -25 98 -67 93 -149 -5 -74 -25 -107 -89 -143
-39 -21 -56 -24 -149 -25 l-105 0 -3 155 c-1 85 0 160 2 167 8 20 188 17 251
-5z m5 -493 c89 -20 140 -81 140 -169 0 -64 -18 -108 -58 -142 -49 -41 -96
-52 -222 -52 l-115 -1 -3 188 -2 187 107 0 c60 0 128 -5 153 -11z"/>
<path d="M6169 3966 c-41 -12 -81 -26 -87 -30 -8 -5 -12 -39 -12 -102 l0 -94
-70 0 -70 0 0 -75 0 -75 70 0 70 0 0 -263 c0 -307 6 -343 69 -400 22 -20 57
-40 78 -46 55 -16 178 -13 218 3 l35 15 0 71 c0 70 -1 71 -22 63 -13 -4 -47
-8 -76 -8 -103 0 -115 41 -110 370 l3 190 103 3 102 3 0 74 0 74 -102 3 -103
3 -3 123 c-1 67 -6 122 -10 121 -4 0 -41 -11 -83 -23z"/>
<path d="M5273 3745 c-87 -19 -155 -59 -218 -127 -62 -67 -93 -138 -105 -246
-24 -215 61 -386 230 -466 62 -29 71 -31 195 -31 113 0 138 3 188 23 113 46
194 133 234 252 27 82 25 274 -4 352 -74 200 -278 295 -520 243z m244 -177
c63 -42 96 -118 101 -233 5 -112 -14 -189 -61 -242 -80 -91 -236 -99 -327 -17
-60 55 -84 121 -84 234 1 110 23 177 77 228 57 53 84 62 173 60 68 -3 87 -7
121 -30z"/>
<path d="M8397 3750 c-88 -23 -186 -91 -238 -166 -106 -155 -103 -416 7 -576
34 -48 115 -103 183 -122 112 -33 303 -16 401 34 l40 20 0 76 c0 42 -3 74 -7
72 -5 -2 -31 -15 -60 -31 -29 -15 -83 -32 -121 -39 -59 -10 -79 -9 -137 5
-110 27 -167 88 -182 192 l-6 45 289 2 289 3 3 43 c4 60 -14 170 -40 239 -28
76 -113 162 -183 187 -60 21 -185 29 -238 16z m138 -141 c73 -18 135 -104 135
-186 l0 -23 -196 0 -196 0 7 33 c17 78 85 160 143 173 15 3 32 7 37 9 17 6 25
5 70 -6z"/>
<path d="M9235 3744 c-38 -8 -93 -27 -122 -40 l-53 -25 0 -80 c0 -43 2 -79 5
-79 2 0 26 14 52 30 65 41 133 60 217 60 108 0 156 -38 172 -138 l6 -39 -83
-12 c-270 -38 -329 -58 -392 -131 -38 -45 -57 -103 -57 -176 0 -104 51 -185
142 -224 44 -19 65 -22 138 -18 98 5 158 31 207 93 16 19 31 35 36 35 4 0 7
-25 7 -55 l0 -55 96 0 96 0 -4 318 c-4 265 -8 326 -22 370 -22 69 -84 132
-152 156 -69 25 -203 29 -289 10z m275 -498 c0 -125 -70 -216 -178 -232 -55
-8 -124 17 -148 54 -20 31 -23 107 -5 140 18 34 80 59 182 75 156 24 149 26
149 -37z"/>
<path d="M10318 3746 c-60 -16 -119 -55 -155 -102 l-28 -38 -5 65 -5 64 -95 0
-95 0 -3 -422 -2 -423 100 0 100 0 0 273 c0 266 1 273 24 323 35 76 82 108
165 112 84 4 123 -18 154 -86 21 -44 22 -64 25 -334 l3 -288 95 0 95 0 -3 323
c-3 307 -4 325 -26 379 -53 132 -193 195 -344 154z"/>
<path d="M11114 3747 c-102 -27 -192 -90 -220 -154 -20 -46 -17 -140 5 -188
31 -68 94 -111 258 -175 90 -34 133 -73 133 -119 0 -70 -77 -107 -206 -99 -61
4 -89 12 -145 41 l-69 35 0 -83 c0 -54 4 -86 13 -93 32 -27 143 -44 259 -40
113 4 120 5 195 44 94 48 134 101 141 190 11 134 -72 216 -303 300 -118 42
-141 139 -45 189 48 25 173 19 245 -10 33 -14 61 -25 63 -25 2 0 2 37 0 82
l-3 82 -45 14 c-66 19 -215 24 -276 9z"/>
</g>
</svg>
