<?xml version="1.0" standalone="no"?>
<!DOCTYPE svg PUBLIC "-//W3C//DTD SVG 20010904//EN"
 "http://www.w3.org/TR/2001/REC-SVG-20010904/DTD/svg10.dtd">
<svg version="1.0" xmlns="http://www.w3.org/2000/svg"
 width="100%" height="100%" viewBox="0 0 1024.000000 456.000000"
 preserveAspectRatio="none">

<g transform="translate(0.000000,456.000000) scale(0.100000,-0.100000) "
fill="#ffffff" stroke="none" style="opacity:0.35">
<path d="M27 4532 c-26 -27 -27 -31 -27 -153 l0 -124 884 -815 c829 -765 883
-816 864 -829 -11 -8 -407 -238 -881 -512 l-862 -497 -3 -206 c-1 -113 0 -206
2 -206 2 0 95 52 205 116 l201 116 73 -65 c39 -36 383 -356 762 -711 l690
-645 265 -1 265 0 -25 24 c-14 13 -401 374 -860 802 -459 427 -836 780 -837
783 -2 5 1280 748 1300 755 2 0 468 -427 1035 -951 l1031 -952 -362 -221
c-199 -122 -366 -226 -371 -231 -6 -5 124 -9 328 -9 l339 0 170 105 170 104
113 -104 112 -105 263 2 262 3 -216 199 -216 199 42 27 c23 14 1116 684 2429
1489 1314 805 2388 1469 2387 1475 -1 22 -177 291 -188 288 -6 -1 -1121 -682
-2477 -1513 l-2465 -1512 -22 20 c-12 11 -964 889 -2115 1952 l-2092 1931 -73
0 c-67 0 -75 -2 -100 -28z"/>
<path d="M7663 1422 l-2312 -1417 338 -3 339 -2 2066 1266 c1136 697 2066
1270 2066 1275 0 10 -156 267 -174 286 -8 9 -554 -321 -2323 -1405z"/>
<path d="M8670 872 l-1414 -867 338 -3 338 -2 1154 707 1154 707 0 42 c0 35
-12 62 -66 151 -37 59 -72 113 -78 120 -8 9 -343 -191 -1426 -855z"/>
</g>
</svg>
